<svg id="Layer_1" data-name="Layer 1" xmlns="http://www.w3.org/2000/svg" viewBox="0 0 73.38 55.87"><defs><style>.cls-1{fill:#30c587;}</style></defs><path class="cls-1" d="M444.85,283.57a9.77,9.77,0,0,0-8.22,3.92v-2.23a2.38,2.38,0,0,0-2.38-2.39h-8.47a23.66,23.66,0,0,0-23.66,23.66h30.5a4,4,0,0,0,4-4v-3.35a9.77,9.77,0,1,0,8.22-15.6Z" transform="translate(-390.53 -282.87)"/><path class="cls-1" d="M393.33,318.23h3l3.75,11.26,3.77-11.26h3l2.71,16.15h-3l-1.73-10.2-3.43,10.2H398.7l-3.4-10.2-1.77,10.2h-3Z" transform="translate(-390.53 -282.87)"/><path class="cls-1" d="M423.63,329.27H414a3.19,3.19,0,0,0,1.12,2,3.49,3.49,0,0,0,2.31.75,4,4,0,0,0,2.88-1.17l2.53,1.18a5.9,5.9,0,0,1-2.26,2,7,7,0,0,1-3.13.65,6.21,6.21,0,0,1-4.58-1.78,6,6,0,0,1-1.77-4.44,6.24,6.24,0,0,1,1.77-4.54,5.9,5.9,0,0,1,4.41-1.8,6.12,6.12,0,0,1,4.59,1.8,6.54,6.54,0,0,1,1.77,4.77Zm-3-2.36a3,3,0,0,0-1.17-1.62,3.38,3.38,0,0,0-2-.63,3.65,3.65,0,0,0-2.2.7,4.06,4.06,0,0,0-1.1,1.55Z" transform="translate(-390.53 -282.87)"/><path class="cls-1" d="M438,329.27h-9.63a3.24,3.24,0,0,0,1.12,2,3.49,3.49,0,0,0,2.31.75,4,4,0,0,0,2.89-1.17l2.52,1.18a5.9,5.9,0,0,1-2.26,2,7,7,0,0,1-3.13.65,6.21,6.21,0,0,1-4.58-1.78,6.05,6.05,0,0,1-1.76-4.44,6.23,6.23,0,0,1,1.76-4.54,5.93,5.93,0,0,1,4.42-1.8,6.15,6.15,0,0,1,4.59,1.8A6.58,6.58,0,0,1,438,328.7Zm-3-2.36a3,3,0,0,0-1.18-1.62,3.35,3.35,0,0,0-2-.63,3.63,3.63,0,0,0-2.2.7,3.86,3.86,0,0,0-1.1,1.55Z" transform="translate(-390.53 -282.87)"/><path class="cls-1" d="M440.81,318h3v4.4h1.78V325h-1.78v9.37h-3V325h-1.54v-2.58h1.54Z" transform="translate(-390.53 -282.87)"/><path class="cls-1" d="M446.86,317.82h3v16.56h-3Z" transform="translate(-390.53 -282.87)"/><path class="cls-1" d="M451.25,322.43h3.07l3.1,7.5,3.42-7.5h3.07l-7.48,16.32h-3.09l2.45-5.26Z" transform="translate(-390.53 -282.87)"/></svg>